<?xml version="1.0" encoding="UTF-8" standalone="no"?>
<!-- Created with Inkscape (http://www.inkscape.org/) -->

<svg
   xmlns:dc="http://purl.org/dc/elements/1.1/"
   xmlns:cc="http://creativecommons.org/ns#"
   xmlns:rdf="http://www.w3.org/1999/02/22-rdf-syntax-ns#"
   xmlns:svg="http://www.w3.org/2000/svg"
   xmlns="http://www.w3.org/2000/svg"
   xmlns:sodipodi="http://sodipodi.sourceforge.net/DTD/sodipodi-0.dtd"
   xmlns:inkscape="http://www.inkscape.org/namespaces/inkscape"
   width="744.09448"
   height="1052.3622"
   id="svg2"
   version="1.1"
   inkscape:version="0.48.4 r9939"
   sodipodi:docname="workshop_circuitPlayground_1.svg"
   style="enable-background:new">
  <defs
     id="defs4" />
  <sodipodi:namedview
     id="base"
     pagecolor="#ffffff"
     bordercolor="#666666"
     borderopacity="1.0"
     inkscape:pageopacity="0.0"
     inkscape:pageshadow="2"
     inkscape:zoom="0.49497475"
     inkscape:cx="286.65558"
     inkscape:cy="580.65454"
     inkscape:document-units="px"
     inkscape:current-layer="layer1"
     showgrid="false"
     inkscape:window-width="1366"
     inkscape:window-height="696"
     inkscape:window-x="0"
     inkscape:window-y="25"
     inkscape:window-maximized="1"
     showguides="true"
     inkscape:guide-bbox="true"
     units="mm" />
  <metadata
     id="metadata7">
    <rdf:RDF>
      <cc:Work
         rdf:about="">
        <dc:format>image/svg+xml</dc:format>
        <dc:type
           rdf:resource="http://purl.org/dc/dcmitype/StillImage" />
        <dc:title></dc:title>
      </cc:Work>
    </rdf:RDF>
  </metadata>
  <g
     inkscape:groupmode="layer"
     id="layer4"
     inkscape:label="fundo"
     transform="translate(0,-3.6171875e-6)"
     sodipodi:insensitive="true"
     style="display:inline">
    <rect
       style="fill:#ffffff;fill-opacity:1;stroke:none;display:inline;enable-background:new"
       id="rect3063"
       width="744.09448"
       height="1052.3622"
       x="-744.09448"
       y="3.6171875e-06"
       rx="0"
       ry="0"
       transform="scale(-1,1)" />
  </g>
  <g
     inkscape:groupmode="layer"
     id="layer2"
     inkscape:label="Layer"
     style="display:inline"
     sodipodi:insensitive="true"
     transform="translate(0,4.4914063e-5)" />
  <g
     inkscape:label="Layer 1"
     inkscape:groupmode="layer"
     id="layer1"
     style="opacity:0.87999998;display:inline"
     transform="translate(0,4.4914063e-5)">
    <text
       xml:space="preserve"
       style="font-size:65.48500061px;font-style:normal;font-variant:normal;font-weight:bold;font-stretch:normal;text-align:start;line-height:125%;letter-spacing:0px;word-spacing:0px;writing-mode:lr-tb;text-anchor:start;fill:#000000;fill-opacity:1;stroke:none;font-family:WenQuanYi Micro Hei Mono;-inkscape-font-specification:WenQuanYi Micro Hei Mono Bold"
       x="17.343132"
       y="66.703911"
       id="text3906"
       sodipodi:linespacing="125%"
       transform="scale(0.93130309,1.0737643)"><tspan
         sodipodi:role="line"
         id="tspan3908"
         x="17.343132"
         y="66.703911">Workshop </tspan></text>
    <text
       sodipodi:linespacing="125%"
       id="text3910"
       y="261.70963"
       x="14.094463"
       style="font-size:65.48500061px;font-style:normal;font-variant:normal;font-weight:bold;font-stretch:normal;text-align:start;line-height:125%;letter-spacing:0px;word-spacing:0px;writing-mode:lr-tb;text-anchor:start;fill:#000000;fill-opacity:1;stroke:none;font-family:WenQuanYi Micro Hei Mono;-inkscape-font-specification:WenQuanYi Micro Hei Mono Bold"
       xml:space="preserve"
       transform="scale(0.93130309,1.0737643)"><tspan
         y="261.70963"
         x="14.094463"
         id="tspan3912"
         sodipodi:role="line">Cicruit Playground</tspan></text>
    <text
       sodipodi:linespacing="125%"
       id="text3914"
       y="160.92932"
       x="61.871044"
       style="font-size:32.74250031px;font-style:normal;font-variant:normal;font-weight:normal;font-stretch:normal;text-align:start;line-height:125%;letter-spacing:0px;word-spacing:0px;writing-mode:lr-tb;text-anchor:start;fill:#000000;fill-opacity:1;stroke:none;font-family:WenQuanYi Micro Hei Mono;-inkscape-font-specification:WenQuanYi Micro Hei Mono"
       xml:space="preserve"
       transform="scale(0.93130309,1.0737643)"><tspan
         y="160.92932"
         x="61.871044"
         id="tspan3916"
         sodipodi:role="line">Introdução à <tspan
   style="font-size:39.29100037px;font-style:normal;font-variant:normal;font-weight:bold;font-stretch:normal;text-align:start;line-height:125%;writing-mode:lr-tb;text-anchor:start;font-family:WenQuanYi Micro Hei Mono;-inkscape-font-specification:WenQuanYi Micro Hei Mono Bold"
   id="tspan4065">electrónica</tspan> com</tspan></text>
    <text
       xml:space="preserve"
       style="font-size:15px;font-style:normal;font-variant:normal;font-weight:normal;font-stretch:normal;text-align:start;line-height:125%;letter-spacing:0px;word-spacing:0px;writing-mode:lr-tb;text-anchor:start;fill:#000000;fill-opacity:1;stroke:none;font-family:WenQuanYi Micro Hei Mono;-inkscape-font-specification:WenQuanYi Micro Hei Mono"
       x="30.767944"
       y="904.8457"
       id="text4388"
       sodipodi:linespacing="125%"><tspan
         sodipodi:role="line"
         id="tspan4390"
         x="30.767944"
         y="904.8457">Vem aprender a programar para electrónica sem ter de soldar.</tspan><tspan
         sodipodi:role="line"
         x="30.767944"
         y="923.5957"
         id="tspan4396">Dia 10 de Dezembro 2016 no DARC / das 11 às 19h.</tspan><tspan
         sodipodi:role="line"
         x="30.767944"
         y="942.3457"
         id="tspan4406">A inscrição de 35€ inclui um Circuit Playground com o qual podes desenvolver</tspan><tspan
         sodipodi:role="line"
         x="30.767944"
         y="961.0957"
         id="tspan4414">o teu projecto.</tspan><tspan
         sodipodi:role="line"
         x="30.767944"
         y="979.8457"
         id="tspan4416" /><tspan
         sodipodi:role="line"
         x="30.767944"
         y="998.5957"
         id="tspan4418">+ info em darc.pt/workshopcp</tspan></text>
  </g>
  <g
     inkscape:groupmode="layer"
     id="layer3"
     inkscape:label="Layer#1"
     transform="translate(0,4.4914063e-5)">
    <g
       id="g3923"
       transform="matrix(0.84809091,0,0,0.82807377,50.781677,97.132546)">
      <path
         transform="matrix(0.99333621,0,0,0.99333621,-128.55635,-61.318665)"
         d="m 734.28572,604.50507 c 0,127.41997 -103.2943,230.71428 -230.71428,230.71428 -127.41998,0 -230.71428,-103.29431 -230.71428,-230.71428 0,-127.41998 103.2943,-230.71428 230.71428,-230.71428 127.41998,0 230.71428,103.2943 230.71428,230.71428 z"
         sodipodi:ry="230.71428"
         sodipodi:rx="230.71428"
         sodipodi:cy="604.50507"
         sodipodi:cx="503.57144"
         id="path3069"
         style="opacity:0.68999999;fill:#003700;fill-opacity:1;stroke:none;display:inline;enable-background:new"
         sodipodi:type="arc" />
      <path
         sodipodi:type="arc"
         style="opacity:0.68999999;fill:none;stroke:#000000;stroke-width:9.14704132;stroke-linejoin:round;stroke-miterlimit:4;stroke-opacity:1;stroke-dasharray:none;display:inline;enable-background:new"
         id="path3858"
         sodipodi:cx="503.57144"
         sodipodi:cy="604.50507"
         sodipodi:rx="230.71428"
         sodipodi:ry="230.71428"
         d="m 734.28572,604.50507 c 0,127.41997 -103.2943,230.71428 -230.71428,230.71428 -127.41998,0 -230.71428,-103.29431 -230.71428,-230.71428 0,-127.41998 103.2943,-230.71428 230.71428,-230.71428 127.41998,0 230.71428,103.2943 230.71428,230.71428 z"
         transform="matrix(0.78026949,0,0,0.78026949,-22.350191,71.834)" />
      <path
         transform="matrix(0.91931484,0,0,0.91931484,-5.2537886,145.02361)"
         d="m 535.71429,230.93361 c 0,8.67876 -6.71572,15.71428 -15,15.71428 -8.28427,0 -15,-7.03552 -15,-15.71428 0,-8.67876 6.71573,-15.71429 15,-15.71429 8.28428,0 15,7.03553 15,15.71429 z"
         sodipodi:ry="15.714286"
         sodipodi:rx="15"
         sodipodi:cy="230.93361"
         sodipodi:cx="520.71429"
         id="path3860"
         style="opacity:0.68999999;fill:none;stroke:#ffff00;stroke-width:14.38173199;stroke-linejoin:round;stroke-miterlimit:4;stroke-opacity:1;stroke-dasharray:none;display:inline;enable-background:new"
         sodipodi:type="arc" />
      <path
         sodipodi:type="arc"
         style="opacity:0.68999999;fill:none;stroke:#ffff00;stroke-width:14.38173199;stroke-linejoin:round;stroke-miterlimit:4;stroke-opacity:1;stroke-dasharray:none;display:inline;enable-background:new"
         id="path3862"
         sodipodi:cx="520.71429"
         sodipodi:cy="230.93361"
         sodipodi:rx="15"
         sodipodi:ry="15.714286"
         d="m 535.71429,230.93361 c 0,8.67876 -6.71572,15.71428 -15,15.71428 -8.28427,0 -15,-7.03552 -15,-15.71428 0,-8.67876 6.71573,-15.71429 15,-15.71429 8.28428,0 15,7.03553 15,15.71429 z"
         transform="matrix(0.91931484,0,0,0.91931484,53.399385,193.88312)" />
      <path
         transform="matrix(0.91931484,0,0,0.91931484,88.874217,256.88903)"
         d="m 535.71429,230.93361 c 0,8.67876 -6.71572,15.71428 -15,15.71428 -8.28427,0 -15,-7.03552 -15,-15.71428 0,-8.67876 6.71573,-15.71429 15,-15.71429 8.28428,0 15,7.03553 15,15.71429 z"
         sodipodi:ry="15.714286"
         sodipodi:rx="15"
         sodipodi:cy="230.93361"
         sodipodi:cx="520.71429"
         id="path3864"
         style="opacity:0.68999999;fill:none;stroke:#ffff00;stroke-width:14.38173199;stroke-linejoin:round;stroke-miterlimit:4;stroke-opacity:1;stroke-dasharray:none;display:inline;enable-background:new"
         sodipodi:type="arc" />
      <path
         sodipodi:type="arc"
         style="opacity:0.68999999;fill:none;stroke:#ffff00;stroke-width:14.38173199;stroke-linejoin:round;stroke-miterlimit:4;stroke-opacity:1;stroke-dasharray:none;display:inline;enable-background:new"
         id="path3866"
         sodipodi:cx="520.71429"
         sodipodi:cy="230.93361"
         sodipodi:rx="15"
         sodipodi:ry="15.714286"
         d="m 535.71429,230.93361 c 0,8.67876 -6.71572,15.71428 -15,15.71428 -8.28427,0 -15,-7.03552 -15,-15.71428 0,-8.67876 6.71573,-15.71429 15,-15.71429 8.28428,0 15,7.03553 15,15.71429 z"
         transform="matrix(0.91931484,0,0,0.91931484,100.84425,328.70925)" />
      <path
         transform="matrix(0.91931484,0,0,0.91931484,88.330125,401.07356)"
         d="m 535.71429,230.93361 c 0,8.67876 -6.71572,15.71428 -15,15.71428 -8.28427,0 -15,-7.03552 -15,-15.71428 0,-8.67876 6.71573,-15.71429 15,-15.71429 8.28428,0 15,7.03553 15,15.71429 z"
         sodipodi:ry="15.714286"
         sodipodi:rx="15"
         sodipodi:cy="230.93361"
         sodipodi:cx="520.71429"
         id="path3868"
         style="opacity:0.68999999;fill:none;stroke:#ffff00;stroke-width:14.38173199;stroke-linejoin:round;stroke-miterlimit:4;stroke-opacity:1;stroke-dasharray:none;display:inline;enable-background:new"
         sodipodi:type="arc" />
      <path
         sodipodi:type="arc"
         style="opacity:0.68999999;fill:none;stroke:#ffff00;stroke-width:14.38173199;stroke-linejoin:round;stroke-miterlimit:4;stroke-opacity:1;stroke-dasharray:none;display:inline;enable-background:new"
         id="path3870"
         sodipodi:cx="520.71429"
         sodipodi:cy="230.93361"
         sodipodi:rx="15"
         sodipodi:ry="15.714286"
         d="m 535.71429,230.93361 c 0,8.67876 -6.71572,15.71428 -15,15.71428 -8.28427,0 -15,-7.03552 -15,-15.71428 0,-8.67876 6.71573,-15.71429 15,-15.71429 8.28428,0 15,7.03553 15,15.71429 z"
         transform="matrix(0.91931484,0,0,0.91931484,49.699556,466.90874)" />
      <path
         transform="matrix(0.91931484,0,0,0.91931484,-6.3419728,511.52434)"
         d="m 535.71429,230.93361 c 0,8.67876 -6.71572,15.71428 -15,15.71428 -8.28427,0 -15,-7.03552 -15,-15.71428 0,-8.67876 6.71573,-15.71429 15,-15.71429 8.28428,0 15,7.03553 15,15.71429 z"
         sodipodi:ry="15.714286"
         sodipodi:rx="15"
         sodipodi:cy="230.93361"
         sodipodi:cx="520.71429"
         id="path3872"
         style="opacity:0.68999999;fill:none;stroke:#ffff00;stroke-width:14.38173199;stroke-linejoin:round;stroke-miterlimit:4;stroke-opacity:1;stroke-dasharray:none;display:inline;enable-background:new"
         sodipodi:type="arc" />
      <path
         sodipodi:type="arc"
         style="opacity:0.68999999;fill:none;stroke:#ffff00;stroke-width:14.38173199;stroke-linejoin:round;stroke-miterlimit:4;stroke-opacity:1;stroke-dasharray:none;display:inline;enable-background:new"
         id="path3874"
         sodipodi:cx="520.71429"
         sodipodi:cy="230.93361"
         sodipodi:rx="15"
         sodipodi:ry="15.714286"
         d="m 535.71429,230.93361 c 0,8.67876 -6.71572,15.71428 -15,15.71428 -8.28427,0 -15,-7.03552 -15,-15.71428 0,-8.67876 6.71573,-15.71429 15,-15.71429 8.28428,0 15,7.03553 15,15.71429 z"
         transform="matrix(0.91931484,0,0,0.91931484,-212.11777,508.91269)" />
      <path
         transform="matrix(0.91931484,0,0,0.91931484,-265.54765,463.86182)"
         d="m 535.71429,230.93361 c 0,8.67876 -6.71572,15.71428 -15,15.71428 -8.28427,0 -15,-7.03552 -15,-15.71428 0,-8.67876 6.71573,-15.71429 15,-15.71429 8.28428,0 15,7.03553 15,15.71429 z"
         sodipodi:ry="15.714286"
         sodipodi:rx="15"
         sodipodi:cy="230.93361"
         sodipodi:cx="520.71429"
         id="path3876"
         style="opacity:0.68999999;fill:none;stroke:#ffff00;stroke-width:14.38173199;stroke-linejoin:round;stroke-miterlimit:4;stroke-opacity:1;stroke-dasharray:none;display:inline;enable-background:new"
         sodipodi:type="arc" />
      <path
         sodipodi:type="arc"
         style="opacity:0.68999999;fill:none;stroke:#ffff00;stroke-width:14.38173199;stroke-linejoin:round;stroke-miterlimit:4;stroke-opacity:1;stroke-dasharray:none;display:inline;enable-background:new"
         id="path3878"
         sodipodi:cx="520.71429"
         sodipodi:cy="230.93361"
         sodipodi:rx="15"
         sodipodi:ry="15.714286"
         d="m 535.71429,230.93361 c 0,8.67876 -6.71572,15.71428 -15,15.71428 -8.28427,0 -15,-7.03552 -15,-15.71428 0,-8.67876 6.71573,-15.71429 15,-15.71429 8.28428,0 15,7.03553 15,15.71429 z"
         transform="matrix(0.91931484,0,0,0.91931484,-303.25133,402.27385)" />
      <path
         transform="matrix(0.91931484,0,0,0.91931484,-317.10167,331.48326)"
         d="m 535.71429,230.93361 c 0,8.67876 -6.71572,15.71428 -15,15.71428 -8.28427,0 -15,-7.03552 -15,-15.71428 0,-8.67876 6.71573,-15.71429 15,-15.71429 8.28428,0 15,7.03553 15,15.71429 z"
         sodipodi:ry="15.714286"
         sodipodi:rx="15"
         sodipodi:cy="230.93361"
         sodipodi:cx="520.71429"
         id="path3880"
         style="opacity:0.68999999;fill:none;stroke:#ffff00;stroke-width:14.38173199;stroke-linejoin:round;stroke-miterlimit:4;stroke-opacity:1;stroke-dasharray:none;display:inline;enable-background:new"
         sodipodi:type="arc" />
      <path
         sodipodi:type="arc"
         style="opacity:0.68999999;fill:none;stroke:#ffff00;stroke-width:14.38173199;stroke-linejoin:round;stroke-miterlimit:4;stroke-opacity:1;stroke-dasharray:none;display:inline;enable-background:new"
         id="path3882"
         sodipodi:cx="520.71429"
         sodipodi:cy="230.93361"
         sodipodi:rx="15"
         sodipodi:ry="15.714286"
         d="m 535.71429,230.93361 c 0,8.67876 -6.71572,15.71428 -15,15.71428 -8.28427,0 -15,-7.03552 -15,-15.71428 0,-8.67876 6.71573,-15.71429 15,-15.71429 8.28428,0 15,7.03553 15,15.71429 z"
         transform="matrix(0.91931484,0,0,0.91931484,-304.7748,257.59935)" />
      <path
         transform="matrix(0.91931484,0,0,0.91931484,-270.91843,196.02684)"
         d="m 535.71429,230.93361 c 0,8.67876 -6.71572,15.71428 -15,15.71428 -8.28427,0 -15,-7.03552 -15,-15.71428 0,-8.67876 6.71573,-15.71429 15,-15.71429 8.28428,0 15,7.03553 15,15.71429 z"
         sodipodi:ry="15.714286"
         sodipodi:rx="15"
         sodipodi:cy="230.93361"
         sodipodi:cx="520.71429"
         id="path3884"
         style="opacity:0.68999999;fill:none;stroke:#ffff00;stroke-width:14.38173199;stroke-linejoin:round;stroke-miterlimit:4;stroke-opacity:1;stroke-dasharray:none;display:inline;enable-background:new"
         sodipodi:type="arc" />
      <path
         sodipodi:type="arc"
         style="opacity:0.68999999;fill:none;stroke:#ffff00;stroke-width:14.38173199;stroke-linejoin:round;stroke-miterlimit:4;stroke-opacity:1;stroke-dasharray:none;display:inline;enable-background:new"
         id="path3886"
         sodipodi:cx="520.71429"
         sodipodi:cy="230.93361"
         sodipodi:rx="15"
         sodipodi:ry="15.714286"
         d="m 535.71429,230.93361 c 0,8.67876 -6.71572,15.71428 -15,15.71428 -8.28427,0 -15,-7.03552 -15,-15.71428 0,-8.67876 6.71573,-15.71429 15,-15.71429 8.28428,0 15,7.03553 15,15.71429 z"
         transform="matrix(0.91931484,0,0,0.91931484,-213.9627,146.04267)" />
      <g
         transform="matrix(0.97006929,0,0,0.97006929,4.2261658,-35.207347)"
         id="g3984"
         style="opacity:0.87999998;display:inline;enable-background:new">
        <path
           sodipodi:type="arc"
           style="fill:#ff0000;fill-opacity:1;stroke:#000000;stroke-width:0.73848754;stroke-linejoin:round;stroke-miterlimit:4;stroke-opacity:1;stroke-dasharray:none;display:inline"
           id="path3936"
           sodipodi:cx="652.55853"
           sodipodi:cy="876.59564"
           sodipodi:rx="14.142136"
           sodipodi:ry="14.142136"
           d="m 666.70067,876.59564 c 0,7.81049 -6.33165,14.14214 -14.14214,14.14214 -7.81048,0 -14.14213,-6.33165 -14.14213,-14.14214 0,-7.81048 6.33165,-14.14213 14.14213,-14.14213 7.81049,0 14.14214,6.33165 14.14214,14.14213 z"
           transform="matrix(1.1452858,0,0,1.1452858,-298.01057,-557.58037)" />
        <path
           transform="matrix(1.1452858,0,0,1.1452858,-231.21867,-500.0829)"
           d="m 666.70067,876.59564 c 0,7.81049 -6.33165,14.14214 -14.14214,14.14214 -7.81048,0 -14.14213,-6.33165 -14.14213,-14.14214 0,-7.81048 6.33165,-14.14213 14.14213,-14.14213 7.81049,0 14.14214,6.33165 14.14214,14.14213 z"
           sodipodi:ry="14.142136"
           sodipodi:rx="14.142136"
           sodipodi:cy="876.59564"
           sodipodi:cx="652.55853"
           id="path3956"
           style="fill:#ff0000;fill-opacity:1;stroke:#000000;stroke-width:0.73848754;stroke-linejoin:round;stroke-miterlimit:4;stroke-opacity:1;stroke-dasharray:none;display:inline"
           sodipodi:type="arc" />
        <path
           sodipodi:type="arc"
           style="fill:#ff0000;fill-opacity:1;stroke:#000000;stroke-width:0.73848754;stroke-linejoin:round;stroke-miterlimit:4;stroke-opacity:1;stroke-dasharray:none;display:inline"
           id="path3958"
           sodipodi:cx="652.55853"
           sodipodi:cy="876.59564"
           sodipodi:rx="14.142136"
           sodipodi:ry="14.142136"
           d="m 666.70067,876.59564 c 0,7.81049 -6.33165,14.14214 -14.14214,14.14214 -7.81048,0 -14.14213,-6.33165 -14.14213,-14.14214 0,-7.81048 6.33165,-14.14213 14.14213,-14.14213 7.81049,0 14.14214,6.33165 14.14214,14.14213 z"
           transform="matrix(1.1452858,0,0,1.1452858,-203.11715,-411.8655)" />
        <path
           transform="matrix(1.1452858,0,0,1.1452858,-231.44203,-316.27575)"
           d="m 666.70067,876.59564 c 0,7.81049 -6.33165,14.14214 -14.14214,14.14214 -7.81048,0 -14.14213,-6.33165 -14.14213,-14.14214 0,-7.81048 6.33165,-14.14213 14.14213,-14.14213 7.81049,0 14.14214,6.33165 14.14214,14.14213 z"
           sodipodi:ry="14.142136"
           sodipodi:rx="14.142136"
           sodipodi:cy="876.59564"
           sodipodi:cx="652.55853"
           id="path3960"
           style="fill:#ff0000;fill-opacity:1;stroke:#000000;stroke-width:0.73848754;stroke-linejoin:round;stroke-miterlimit:4;stroke-opacity:1;stroke-dasharray:none;display:inline"
           sodipodi:type="arc" />
        <path
           sodipodi:type="arc"
           style="fill:#ff0000;fill-opacity:1;stroke:#000000;stroke-width:0.73848754;stroke-linejoin:round;stroke-miterlimit:4;stroke-opacity:1;stroke-dasharray:none;display:inline"
           id="path3962"
           sodipodi:cx="652.55853"
           sodipodi:cy="876.59564"
           sodipodi:rx="14.142136"
           sodipodi:ry="14.142136"
           d="m 666.70067,876.59564 c 0,7.81049 -6.33165,14.14214 -14.14214,14.14214 -7.81048,0 -14.14213,-6.33165 -14.14213,-14.14214 0,-7.81048 6.33165,-14.14213 14.14213,-14.14213 7.81049,0 14.14214,6.33165 14.14214,14.14213 z"
           transform="matrix(1.1452858,0,0,1.1452858,-309.14256,-253.60568)" />
      </g>
      <g
         transform="matrix(-0.97006929,0,0,0.97006929,736.1166,-35.207347)"
         id="g4015"
         style="opacity:0.87999998;display:inline;enable-background:new">
        <path
           transform="matrix(1.1452858,0,0,1.1452858,-298.01057,-557.58037)"
           d="m 666.70067,876.59564 c 0,7.81049 -6.33165,14.14214 -14.14214,14.14214 -7.81048,0 -14.14213,-6.33165 -14.14213,-14.14214 0,-7.81048 6.33165,-14.14213 14.14213,-14.14213 7.81049,0 14.14214,6.33165 14.14214,14.14213 z"
           sodipodi:ry="14.142136"
           sodipodi:rx="14.142136"
           sodipodi:cy="876.59564"
           sodipodi:cx="652.55853"
           id="path4017"
           style="fill:#ff0000;fill-opacity:1;stroke:#000000;stroke-width:0.73848754;stroke-linejoin:round;stroke-miterlimit:4;stroke-opacity:1;stroke-dasharray:none;display:inline"
           sodipodi:type="arc" />
        <path
           sodipodi:type="arc"
           style="fill:#ff0000;fill-opacity:1;stroke:#000000;stroke-width:0.73848754;stroke-linejoin:round;stroke-miterlimit:4;stroke-opacity:1;stroke-dasharray:none;display:inline"
           id="path4019"
           sodipodi:cx="652.55853"
           sodipodi:cy="876.59564"
           sodipodi:rx="14.142136"
           sodipodi:ry="14.142136"
           d="m 666.70067,876.59564 c 0,7.81049 -6.33165,14.14214 -14.14214,14.14214 -7.81048,0 -14.14213,-6.33165 -14.14213,-14.14214 0,-7.81048 6.33165,-14.14213 14.14213,-14.14213 7.81049,0 14.14214,6.33165 14.14214,14.14213 z"
           transform="matrix(1.1452858,0,0,1.1452858,-231.21867,-500.0829)" />
        <path
           transform="matrix(1.1452858,0,0,1.1452858,-203.11715,-411.8655)"
           d="m 666.70067,876.59564 c 0,7.81049 -6.33165,14.14214 -14.14214,14.14214 -7.81048,0 -14.14213,-6.33165 -14.14213,-14.14214 0,-7.81048 6.33165,-14.14213 14.14213,-14.14213 7.81049,0 14.14214,6.33165 14.14214,14.14213 z"
           sodipodi:ry="14.142136"
           sodipodi:rx="14.142136"
           sodipodi:cy="876.59564"
           sodipodi:cx="652.55853"
           id="path4021"
           style="fill:#ff0000;fill-opacity:1;stroke:#000000;stroke-width:0.73848754;stroke-linejoin:round;stroke-miterlimit:4;stroke-opacity:1;stroke-dasharray:none;display:inline"
           sodipodi:type="arc" />
        <path
           sodipodi:type="arc"
           style="fill:#ff0000;fill-opacity:1;stroke:#000000;stroke-width:0.73848754;stroke-linejoin:round;stroke-miterlimit:4;stroke-opacity:1;stroke-dasharray:none;display:inline"
           id="path4023"
           sodipodi:cx="652.55853"
           sodipodi:cy="876.59564"
           sodipodi:rx="14.142136"
           sodipodi:ry="14.142136"
           d="m 666.70067,876.59564 c 0,7.81049 -6.33165,14.14214 -14.14214,14.14214 -7.81048,0 -14.14213,-6.33165 -14.14213,-14.14214 0,-7.81048 6.33165,-14.14213 14.14213,-14.14213 7.81049,0 14.14214,6.33165 14.14214,14.14213 z"
           transform="matrix(1.1452858,0,0,1.1452858,-231.44203,-316.27575)" />
        <path
           transform="matrix(1.1452858,0,0,1.1452858,-309.14256,-253.60568)"
           d="m 666.70067,876.59564 c 0,7.81049 -6.33165,14.14214 -14.14214,14.14214 -7.81048,0 -14.14213,-6.33165 -14.14213,-14.14214 0,-7.81048 6.33165,-14.14213 14.14213,-14.14213 7.81049,0 14.14214,6.33165 14.14214,14.14213 z"
           sodipodi:ry="14.142136"
           sodipodi:rx="14.142136"
           sodipodi:cy="876.59564"
           sodipodi:cx="652.55853"
           id="path4025"
           style="fill:#ff0000;fill-opacity:1;stroke:#000000;stroke-width:0.73848754;stroke-linejoin:round;stroke-miterlimit:4;stroke-opacity:1;stroke-dasharray:none;display:inline"
           sodipodi:type="arc" />
      </g>
      <rect
         ry="7.6223617"
         rx="3.0306008"
         y="307.85577"
         x="335.30136"
         height="45.873497"
         width="72.716125"
         id="rect4061"
         style="opacity:0.83999999;fill:#9b9b9b;fill-opacity:1;stroke:#000000;stroke-width:2.8226943;stroke-linejoin:round;stroke-miterlimit:4;stroke-opacity:1;stroke-dasharray:none;stroke-dashoffset:0;display:inline;enable-background:new" />
      <g
         transform="matrix(0.80018418,0,0,0.80018418,73.009728,41.08827)"
         id="g4103"
         style="opacity:0.87999998;display:inline;enable-background:new">
        <rect
           style="opacity:0.83999999;fill:#000000;fill-opacity:1;stroke:none"
           id="rect4097"
           width="78.39035"
           height="55.408169"
           x="335"
           y="479.09686"
           rx="1.4848114"
           ry="4.1639261" />
        <text
           xml:space="preserve"
           style="font-size:9.17926884px;font-style:normal;font-weight:normal;line-height:125%;letter-spacing:0px;word-spacing:0px;fill:#ffffff;fill-opacity:1;stroke:none;font-family:Sans"
           x="344.12949"
           y="509.25262"
           id="text4099"
           sodipodi:linespacing="125%"><tspan
             sodipodi:role="line"
             id="tspan4101"
             x="344.12949"
             y="509.25262">ATmega32u4</tspan></text>
      </g>
      <path
         transform="matrix(0.53846153,0,0,0.53846153,117.62633,142.17356)"
         d="m 341.43157,623.04736 c 0,14.50519 -11.75878,26.26397 -26.26397,26.26397 -14.50519,0 -26.26396,-11.75878 -26.26396,-26.26397 0,-14.50518 11.75877,-26.26396 26.26396,-26.26396 14.50519,0 26.26397,11.75878 26.26397,26.26396 z"
         sodipodi:ry="26.263966"
         sodipodi:rx="26.263966"
         sodipodi:cy="623.04736"
         sodipodi:cx="315.1676"
         id="path4119"
         style="opacity:0.83999999;fill:#000000;fill-opacity:1;stroke:none;display:inline;enable-background:new"
         sodipodi:type="arc" />
      <path
         sodipodi:type="arc"
         style="opacity:0.83999999;fill:#000000;fill-opacity:1;stroke:none;display:inline;enable-background:new"
         id="path4121"
         sodipodi:cx="315.1676"
         sodipodi:cy="623.04736"
         sodipodi:rx="26.263966"
         sodipodi:ry="26.263966"
         d="m 341.43157,623.04736 c 0,14.50519 -11.75878,26.26397 -26.26397,26.26397 -14.50519,0 -26.26396,-11.75878 -26.26396,-26.26397 0,-14.50518 11.75877,-26.26396 26.26396,-26.26396 14.50519,0 26.26397,11.75878 26.26397,26.26396 z"
         transform="matrix(0.53846153,0,0,0.53846153,286.28119,142.17356)" />
      <path
         transform="matrix(0.53846153,0,0,0.53846153,286.28119,285.16852)"
         d="m 341.43157,623.04736 c 0,14.50519 -11.75878,26.26397 -26.26397,26.26397 -14.50519,0 -26.26396,-11.75878 -26.26396,-26.26397 0,-14.50518 11.75877,-26.26396 26.26396,-26.26396 14.50519,0 26.26397,11.75878 26.26397,26.26396 z"
         sodipodi:ry="26.263966"
         sodipodi:rx="26.263966"
         sodipodi:cy="623.04736"
         sodipodi:cx="315.1676"
         id="path4123"
         style="opacity:0.83999999;fill:#000000;fill-opacity:1;stroke:none;display:inline;enable-background:new"
         sodipodi:type="arc" />
      <path
         sodipodi:type="arc"
         style="opacity:0.83999999;fill:#000000;fill-opacity:1;stroke:none;display:inline;enable-background:new"
         id="path4125"
         sodipodi:cx="315.1676"
         sodipodi:cy="623.04736"
         sodipodi:rx="26.263966"
         sodipodi:ry="26.263966"
         d="m 341.43157,623.04736 c 0,14.50519 -11.75878,26.26397 -26.26397,26.26397 -14.50519,0 -26.26396,-11.75878 -26.26396,-26.26397 0,-14.50518 11.75877,-26.26396 26.26396,-26.26396 14.50519,0 26.26397,11.75878 26.26397,26.26396 z"
         transform="matrix(0.53846153,0,0,0.53846153,117.62633,285.16852)" />
      <rect
         ry="2.4197366"
         rx="0.86285222"
         y="521.48041"
         x="349.43604"
         height="35.355339"
         width="44.446712"
         id="rect4127"
         style="opacity:0.83999999;fill:#000000;fill-opacity:1;stroke:none;display:inline;enable-background:new" />
      <path
         sodipodi:type="arc"
         style="opacity:0.83999999;fill:none;stroke:#000000;stroke-width:21.125;stroke-miterlimit:4;stroke-opacity:1;stroke-dasharray:none;display:inline;enable-background:new"
         id="path4139"
         sodipodi:cx="315.1676"
         sodipodi:cy="623.04736"
         sodipodi:rx="26.263966"
         sodipodi:ry="26.263966"
         d="m 341.43157,623.04736 c 0,14.50519 -11.75878,26.26397 -26.26397,26.26397 -14.50519,0 -26.26396,-11.75878 -26.26396,-26.26397 0,-14.50518 11.75877,-26.26396 26.26396,-26.26396 14.50519,0 26.26397,11.75878 26.26397,26.26396 z"
         transform="matrix(0.53846153,0,0,0.53846153,284.28119,201.16852)" />
      <path
         transform="matrix(0.53846153,0,0,0.53846153,121.62633,201.16852)"
         d="m 341.43157,623.04736 c 0,14.50519 -11.75878,26.26397 -26.26397,26.26397 -14.50519,0 -26.26396,-11.75878 -26.26396,-26.26397 0,-14.50518 11.75877,-26.26396 26.26396,-26.26396 14.50519,0 26.26397,11.75878 26.26397,26.26396 z"
         sodipodi:ry="26.263966"
         sodipodi:rx="26.263966"
         sodipodi:cy="623.04736"
         sodipodi:cx="315.1676"
         id="path4141"
         style="opacity:0.83999999;fill:none;stroke:#000000;stroke-width:21.125;stroke-miterlimit:4;stroke-opacity:1;stroke-dasharray:none;display:inline;enable-background:new"
         sodipodi:type="arc" />
      <path
         sodipodi:nodetypes="ccc"
         inkscape:connector-curvature="0"
         id="path3065"
         d="m 206.07112,535.16404 -36.36549,-30.30457 -115.157393,0"
         style="opacity:0.87999998;fill:none;stroke:#000000;stroke-width:2.5;stroke-linecap:butt;stroke-linejoin:miter;stroke-miterlimit:4;stroke-opacity:1;stroke-dasharray:15, 15;stroke-dashoffset:0;display:inline;enable-background:new" />
      <path
         transform="matrix(0.91931484,0,0,0.91931484,53.399385,193.88312)"
         d="m 535.71429,230.93361 c 0,8.67876 -6.71572,15.71428 -15,15.71428 -8.28427,0 -15,-7.03552 -15,-15.71428 0,-8.67876 6.71573,-15.71429 15,-15.71429 8.28428,0 15,7.03553 15,15.71429 z"
         sodipodi:ry="15.714286"
         sodipodi:rx="15"
         sodipodi:cy="230.93361"
         sodipodi:cx="520.71429"
         id="path3845"
         style="opacity:0.37815127;fill:none;stroke:#000000;stroke-width:2.71941662;stroke-linejoin:round;stroke-miterlimit:4;stroke-opacity:1;stroke-dasharray:2.71941656, 8.15824968;stroke-dashoffset:0;display:inline;enable-background:new"
         sodipodi:type="arc" />
      <path
         sodipodi:type="arc"
         style="opacity:0.37815127;fill:none;stroke:#000000;stroke-width:2.71941662;stroke-linejoin:round;stroke-miterlimit:4;stroke-opacity:1;stroke-dasharray:2.71941656, 8.15824968;stroke-dashoffset:0;display:inline;enable-background:new"
         id="path3847"
         sodipodi:cx="520.71429"
         sodipodi:cy="230.93361"
         sodipodi:rx="15"
         sodipodi:ry="15.714286"
         d="m 535.71429,230.93361 c 0,8.67876 -6.71572,15.71428 -15,15.71428 -8.28427,0 -15,-7.03552 -15,-15.71428 0,-8.67876 6.71573,-15.71429 15,-15.71429 8.28428,0 15,7.03553 15,15.71429 z"
         transform="matrix(0.91931484,0,0,0.91931484,88.874217,256.88903)" />
      <path
         sodipodi:type="arc"
         style="opacity:0.37815127;fill:none;stroke:#000000;stroke-width:2.71941662;stroke-linejoin:round;stroke-miterlimit:4;stroke-opacity:1;stroke-dasharray:2.71941656, 8.15824968;stroke-dashoffset:0;display:inline;enable-background:new"
         id="path3849"
         sodipodi:cx="520.71429"
         sodipodi:cy="230.93361"
         sodipodi:rx="15"
         sodipodi:ry="15.714286"
         d="m 535.71429,230.93361 c 0,8.67876 -6.71572,15.71428 -15,15.71428 -8.28427,0 -15,-7.03552 -15,-15.71428 0,-8.67876 6.71573,-15.71429 15,-15.71429 8.28428,0 15,7.03553 15,15.71429 z"
         transform="matrix(0.91931484,0,0,0.91931484,88.330125,401.07356)" />
      <path
         transform="matrix(0.91931484,0,0,0.91931484,49.699556,466.90874)"
         d="m 535.71429,230.93361 c 0,8.67876 -6.71572,15.71428 -15,15.71428 -8.28427,0 -15,-7.03552 -15,-15.71428 0,-8.67876 6.71573,-15.71429 15,-15.71429 8.28428,0 15,7.03553 15,15.71429 z"
         sodipodi:ry="15.714286"
         sodipodi:rx="15"
         sodipodi:cy="230.93361"
         sodipodi:cx="520.71429"
         id="path3851"
         style="opacity:0.37815127;fill:none;stroke:#000000;stroke-width:2.71941662;stroke-linejoin:round;stroke-miterlimit:4;stroke-opacity:1;stroke-dasharray:2.71941656, 8.15824968;stroke-dashoffset:0;display:inline;enable-background:new"
         sodipodi:type="arc" />
      <path
         sodipodi:type="arc"
         style="opacity:0.37815127;fill:none;stroke:#000000;stroke-width:2.71941662;stroke-linejoin:round;stroke-miterlimit:4;stroke-opacity:1;stroke-dasharray:2.71941656, 8.15824968;stroke-dashoffset:0;display:inline;enable-background:new"
         id="path3853"
         sodipodi:cx="520.71429"
         sodipodi:cy="230.93361"
         sodipodi:rx="15"
         sodipodi:ry="15.714286"
         d="m 535.71429,230.93361 c 0,8.67876 -6.71572,15.71428 -15,15.71428 -8.28427,0 -15,-7.03552 -15,-15.71428 0,-8.67876 6.71573,-15.71429 15,-15.71429 8.28428,0 15,7.03553 15,15.71429 z"
         transform="matrix(0.91931484,0,0,0.91931484,-265.54765,463.86182)" />
      <path
         transform="matrix(0.91931484,0,0,0.91931484,-303.25133,402.27385)"
         d="m 535.71429,230.93361 c 0,8.67876 -6.71572,15.71428 -15,15.71428 -8.28427,0 -15,-7.03552 -15,-15.71428 0,-8.67876 6.71573,-15.71429 15,-15.71429 8.28428,0 15,7.03553 15,15.71429 z"
         sodipodi:ry="15.714286"
         sodipodi:rx="15"
         sodipodi:cy="230.93361"
         sodipodi:cx="520.71429"
         id="path3855"
         style="opacity:0.37815127;fill:none;stroke:#000000;stroke-width:2.71941662;stroke-linejoin:round;stroke-miterlimit:4;stroke-opacity:1;stroke-dasharray:2.71941656, 8.15824968;stroke-dashoffset:0;display:inline;enable-background:new"
         sodipodi:type="arc" />
      <path
         transform="matrix(0.91931484,0,0,0.91931484,-304.7748,257.59935)"
         d="m 535.71429,230.93361 c 0,8.67876 -6.71572,15.71428 -15,15.71428 -8.28427,0 -15,-7.03552 -15,-15.71428 0,-8.67876 6.71573,-15.71429 15,-15.71429 8.28428,0 15,7.03553 15,15.71429 z"
         sodipodi:ry="15.714286"
         sodipodi:rx="15"
         sodipodi:cy="230.93361"
         sodipodi:cx="520.71429"
         id="path3857"
         style="opacity:0.37815127;fill:none;stroke:#000000;stroke-width:2.71941662;stroke-linejoin:round;stroke-miterlimit:4;stroke-opacity:1;stroke-dasharray:2.71941656, 8.15824968;stroke-dashoffset:0;display:inline;enable-background:new"
         sodipodi:type="arc" />
      <path
         sodipodi:type="arc"
         style="opacity:0.37815127;fill:none;stroke:#000000;stroke-width:2.71941662;stroke-linejoin:round;stroke-miterlimit:4;stroke-opacity:1;stroke-dasharray:2.71941656, 8.15824968;stroke-dashoffset:0;display:inline;enable-background:new"
         id="path3859"
         sodipodi:cx="520.71429"
         sodipodi:cy="230.93361"
         sodipodi:rx="15"
         sodipodi:ry="15.714286"
         d="m 535.71429,230.93361 c 0,8.67876 -6.71572,15.71428 -15,15.71428 -8.28427,0 -15,-7.03552 -15,-15.71428 0,-8.67876 6.71573,-15.71429 15,-15.71429 8.28428,0 15,7.03553 15,15.71429 z"
         transform="matrix(0.91931484,0,0,0.91931484,-270.91843,196.02684)" />
      <path
         transform="translate(0,-4.4914063e-5)"
         sodipodi:nodetypes="ccc"
         inkscape:connector-curvature="0"
         id="path3861"
         d="m 578.8174,601.83415 28.28428,-35.35534 42.44671,0"
         style="opacity:0.87999998;fill:none;stroke:#000000;stroke-width:2.5;stroke-linecap:butt;stroke-linejoin:miter;stroke-miterlimit:4;stroke-opacity:1;stroke-dasharray:15, 15;stroke-dashoffset:0;display:inline;enable-background:new" />
      <path
         sodipodi:nodetypes="ccc"
         inkscape:connector-curvature="0"
         id="path4268"
         d="M 465.05076,466.12796 570,339.50504 l 37.14286,0"
         style="fill:none;stroke:#000000;stroke-width:2.5;stroke-linecap:butt;stroke-linejoin:miter;stroke-miterlimit:4;stroke-opacity:1;stroke-dasharray:15, 15;stroke-dashoffset:0" />
      <text
         sodipodi:linespacing="125%"
         id="text4274"
         y="333.0867"
         x="658.86969"
         style="font-size:14.01082039px;font-style:normal;font-variant:normal;font-weight:normal;font-stretch:normal;text-align:center;line-height:125%;letter-spacing:0px;word-spacing:0px;writing-mode:lr-tb;text-anchor:middle;fill:#000000;fill-opacity:1;stroke:none;font-family:WenQuanYi Micro Hei Mono;-inkscape-font-specification:WenQuanYi Micro Hei Mono"
         xml:space="preserve"><tspan
           y="333.0867"
           x="658.86969"
           id="tspan4276"
           sodipodi:role="line">Sensor</tspan><tspan
           id="tspan4284"
           y="350.60022"
           x="658.86969"
           sodipodi:role="line">Temperatura</tspan></text>
      <text
         xml:space="preserve"
         style="font-size:14.01082039px;font-style:normal;font-variant:normal;font-weight:normal;font-stretch:normal;text-align:center;line-height:125%;letter-spacing:0px;word-spacing:0px;writing-mode:lr-tb;text-anchor:middle;fill:#000000;fill-opacity:1;stroke:none;font-family:WenQuanYi Micro Hei Mono;-inkscape-font-specification:WenQuanYi Micro Hei Mono"
         x="46.012539"
         y="356.51529"
         id="text4278"
         sodipodi:linespacing="125%"><tspan
           sodipodi:role="line"
           id="tspan4280"
           x="46.012539"
           y="356.51529">Sensor</tspan><tspan
           id="tspan4282"
           sodipodi:role="line"
           x="46.012539"
           y="374.02881">Luz</tspan></text>
      <path
         sodipodi:nodetypes="ccc"
         inkscape:connector-curvature="0"
         id="path4286"
         d="m 276.4496,466.19974 -79.30674,-105.26613 -112.857146,0"
         style="fill:none;stroke:#000000;stroke-width:2.5;stroke-linecap:butt;stroke-linejoin:miter;stroke-miterlimit:4;stroke-opacity:1;stroke-dasharray:15, 15;stroke-dashoffset:0" />
      <text
         sodipodi:linespacing="125%"
         id="text4288"
         y="735.24127"
         x="79.347572"
         style="font-size:14.01082039px;font-style:normal;font-variant:normal;font-weight:normal;font-stretch:normal;text-align:center;line-height:125%;letter-spacing:0px;word-spacing:0px;writing-mode:lr-tb;text-anchor:middle;fill:#000000;fill-opacity:1;stroke:none;font-family:WenQuanYi Micro Hei Mono;-inkscape-font-specification:WenQuanYi Micro Hei Mono"
         xml:space="preserve"><tspan
           y="735.24127"
           x="79.347572"
           sodipodi:role="line"
           id="tspan4292">Mini-altifalante</tspan></text>
      <path
         inkscape:connector-curvature="0"
         id="path4296"
         d="m 283.85287,629.71742 -79.80206,101.01525 -52.52793,0"
         style="fill:none;stroke:#000000;stroke-width:2.5;stroke-linecap:butt;stroke-linejoin:miter;stroke-miterlimit:4;stroke-opacity:1;stroke-dasharray:15, 15;stroke-dashoffset:0" />
      <text
         xml:space="preserve"
         style="font-size:14.01082039px;font-style:normal;font-variant:normal;font-weight:normal;font-stretch:normal;text-align:center;line-height:125%;letter-spacing:0px;word-spacing:0px;writing-mode:lr-tb;text-anchor:middle;fill:#000000;fill-opacity:1;stroke:none;font-family:WenQuanYi Micro Hei Mono;-inkscape-font-specification:WenQuanYi Micro Hei Mono"
         x="646.04315"
         y="747.2616"
         id="text4298"
         sodipodi:linespacing="125%"><tspan
           id="tspan4300"
           sodipodi:role="line"
           x="646.04315"
           y="747.2616">Microfone</tspan></text>
      <path
         sodipodi:nodetypes="ccc"
         inkscape:connector-curvature="0"
         id="path4302"
         d="m 459.61941,634.76818 71.72083,108.08632 65.65991,0"
         style="fill:none;stroke:#000000;stroke-width:2.5;stroke-linecap:butt;stroke-linejoin:miter;stroke-miterlimit:4;stroke-opacity:1;stroke-dasharray:15, 15;stroke-dashoffset:0" />
      <g
         style="stroke-width:2.5;stroke-miterlimit:4;stroke-dasharray:15, 15;stroke-dashoffset:0"
         transform="matrix(1,0,0,-1,0,1135.1455)"
         id="g4312">
        <path
           style="fill:none;stroke:#000000;stroke-width:2.5;stroke-linecap:butt;stroke-linejoin:miter;stroke-miterlimit:4;stroke-opacity:1;stroke-dasharray:15, 15;stroke-dashoffset:0"
           d="m 294.96454,617.93567 16.16244,21.27412 347.51278,0"
           id="path4304"
           inkscape:connector-curvature="0"
           sodipodi:nodetypes="ccc" />
        <path
           style="fill:none;stroke:#000000;stroke-width:2.5;stroke-linecap:butt;stroke-linejoin:miter;stroke-miterlimit:4;stroke-opacity:1;stroke-dasharray:15, 15;stroke-dashoffset:0"
           d="m 454.54834,616.96613 21.23351,22.24366"
           id="path4306"
           inkscape:connector-curvature="0"
           sodipodi:nodetypes="cc" />
      </g>
      <text
         sodipodi:linespacing="125%"
         id="text4308"
         y="499.78442"
         x="689.43909"
         style="font-size:14.01082039px;font-style:normal;font-variant:normal;font-weight:normal;font-stretch:normal;text-align:center;line-height:125%;letter-spacing:0px;word-spacing:0px;writing-mode:lr-tb;text-anchor:middle;fill:#000000;fill-opacity:1;stroke:none;font-family:WenQuanYi Micro Hei Mono;-inkscape-font-specification:WenQuanYi Micro Hei Mono"
         xml:space="preserve"><tspan
           y="499.78442"
           x="689.43909"
           sodipodi:role="line"
           id="tspan4310">Botões</tspan></text>
      <path
         sodipodi:nodetypes="ccc"
         inkscape:connector-curvature="0"
         id="path4316"
         d="m 369.71583,551.93567 -3.03046,258.59905 31.31473,0"
         style="fill:none;stroke:#000000;stroke-width:2.5;stroke-linecap:butt;stroke-linejoin:miter;stroke-miterlimit:4;stroke-opacity:1;stroke-dasharray:15, 15;stroke-dashoffset:0" />
      <text
         xml:space="preserve"
         style="font-size:14.01082039px;font-style:normal;font-variant:normal;font-weight:normal;font-stretch:normal;text-align:center;line-height:125%;letter-spacing:0px;word-spacing:0px;writing-mode:lr-tb;text-anchor:middle;fill:#000000;fill-opacity:1;stroke:none;font-family:WenQuanYi Micro Hei Mono;-inkscape-font-specification:WenQuanYi Micro Hei Mono"
         x="446.79858"
         y="805.83807"
         id="text4322"
         sodipodi:linespacing="125%"><tspan
           sodipodi:role="line"
           id="tspan4324"
           x="446.79858"
           y="805.83807">Sensor</tspan><tspan
           sodipodi:role="line"
           x="446.79858"
           y="823.35162"
           id="tspan4326">Movimento</tspan></text>
      <text
         sodipodi:linespacing="125%"
         id="text4328"
         y="337.93607"
         x="353.50513"
         style="font-size:20px;font-style:normal;font-variant:normal;font-weight:normal;font-stretch:normal;text-align:start;line-height:125%;letter-spacing:0px;word-spacing:0px;writing-mode:lr-tb;text-anchor:start;fill:#000000;fill-opacity:1;stroke:none;font-family:WenQuanYi Micro Hei Mono;-inkscape-font-specification:WenQuanYi Micro Hei Mono"
         xml:space="preserve"><tspan
           y="337.93607"
           x="353.50513"
           id="tspan4330"
           sodipodi:role="line">USB</tspan></text>
      <text
         sodipodi:linespacing="125%"
         id="text3835"
         y="500.8656"
         x="-6.5153928"
         style="font-size:14.01082039px;font-style:normal;font-variant:normal;font-weight:normal;font-stretch:normal;text-align:center;line-height:125%;letter-spacing:0px;word-spacing:0px;writing-mode:lr-tb;text-anchor:middle;fill:#000000;fill-opacity:1;stroke:none;font-family:WenQuanYi Micro Hei Mono;-inkscape-font-specification:WenQuanYi Micro Hei Mono"
         xml:space="preserve"><tspan
           y="500.8656"
           x="-6.5153956"
           sodipodi:role="line"
           id="tspan3839">10x LEDs RGB</tspan><tspan
           id="tspan3843"
           y="518.37915"
           x="-6.5153947"
           sodipodi:role="line">mini NeoPixels</tspan></text>
      <text
         xml:space="preserve"
         style="font-size:14.01082039px;font-style:normal;font-variant:normal;font-weight:normal;font-stretch:normal;text-align:center;line-height:125%;letter-spacing:0px;word-spacing:0px;writing-mode:lr-tb;text-anchor:middle;fill:#000000;fill-opacity:1;stroke:none;font-family:WenQuanYi Micro Hei Mono;-inkscape-font-specification:WenQuanYi Micro Hei Mono"
         x="688.44928"
         y="561.51538"
         id="text3863"
         sodipodi:linespacing="125%"><tspan
           sodipodi:role="line"
           x="688.44928"
           y="561.51538"
           id="tspan3867">8x sensores</tspan><tspan
           id="tspan3871"
           sodipodi:role="line"
           x="688.44928"
           y="579.02893">Capacitivos</tspan></text>
    </g>
  </g>
</svg>
